<svg width="201" height="101" viewBox="0 0 201 101" fill="none" xmlns="http://www.w3.org/2000/svg">
<path fill-rule="evenodd" clip-rule="evenodd" d="M162.278 20.7151L170.936 25.7143L160.854 43.1771L163.233 52.0534L180.695 62.1356L175.696 70.7944L157.943 60.5448L149.525 62.8005L139.275 80.5534L130.616 75.5542L140.698 58.0917L138.32 49.215L120.857 39.133L125.856 30.4742L143.029 40.3887L152.363 37.8876L162.278 20.7151ZM151.539 36.8144L161.82 19.0079L172.644 25.2569L162.195 43.3536L164.306 51.2299L182.403 61.6781L176.154 72.5016L157.767 61.8859L150.348 63.8737L139.732 82.2606L128.909 76.0117L139.357 57.9151L137.246 50.0385L119.15 39.5904L125.399 28.7669L143.205 39.0475L151.539 36.8144ZM194.07 75.6301C180.265 99.5408 149.691 107.733 125.78 93.9283C101.87 80.1235 93.6773 49.5492 107.482 25.6385C121.287 1.72774 151.861 -6.46456 175.772 7.34025C199.683 21.1451 207.875 51.7194 194.07 75.6301ZM126.405 92.8459C149.718 106.306 179.528 98.3181 192.988 75.0052C206.448 51.6922 198.46 21.8823 175.147 8.4226C151.834 -5.03709 122.024 2.95041 108.565 26.2634C95.1048 49.5763 103.092 79.3863 126.405 92.8459ZM60.7231 7.76007L105.893 86.0472C109.105 91.6134 105.097 98.575 98.6824 98.575H8.34216C1.92801 98.575 -2.08021 91.6134 1.13137 86.0472L46.3015 7.76006C49.5089 2.20115 57.5157 2.20116 60.7231 7.76007ZM59.6405 8.38466C56.9141 3.65934 50.1104 3.65934 47.384 8.38466L2.21389 86.6718C1.87227 87.2639 1.62669 87.8744 1.46911 88.4895C0.366035 92.7952 3.5752 97.3252 8.34216 97.3252H98.6824C104.13 97.3252 107.544 91.4085 104.811 86.6718L59.6405 8.38466Z" fill="black"/>
</svg>
