<svg width="24" height="24" viewBox="0 0 24 24" fill="none" xmlns="http://www.w3.org/2000/svg">
<path fill-rule="evenodd" clip-rule="evenodd" d="M6.65465 4.7998C6.94769 4.79983 7.22839 4.91775 7.43353 5.127L17.5635 15.4595L22.1299 10.7999C22.5517 10.3696 23.2423 10.3626 23.6726 10.7843C24.103 11.206 24.1099 11.8967 23.6882 12.327L18.3428 17.7815C18.1376 17.9909 17.8569 18.1089 17.5637 18.1089C17.2706 18.1089 16.9898 17.991 16.7846 17.7817L6.6544 7.44884L1.86975 12.3273C1.44788 12.7574 0.757188 12.7642 0.327045 12.3423C-0.103097 11.9204 -0.109803 11.2297 0.312068 10.7996L5.8757 5.12685C6.08089 4.91764 6.36162 4.79978 6.65465 4.7998Z" fill="black"/>
</svg>
