<svg width="24" height="24" viewBox="0 0 24 24" fill="none" xmlns="http://www.w3.org/2000/svg">
<path fill-rule="evenodd" clip-rule="evenodd" d="M0.673436 6.08307C1.08108 5.91422 1.5503 6.00755 1.8623 6.31955L10.9091 15.3663V7.09094C10.9091 6.64971 11.1749 6.25192 11.5825 6.08307C11.9902 5.91422 12.4594 6.00755 12.7714 6.31955L21.8182 15.3663V12.5455C21.8182 11.943 22.3066 11.4546 22.9091 11.4546C23.5116 11.4546 24 11.943 24 12.5455V18C24 18.4413 23.7342 18.839 23.3266 19.0079C22.9189 19.1768 22.4497 19.0834 22.1377 18.7714L13.0909 9.72463V18C13.0909 18.4413 12.8251 18.839 12.4175 19.0079C12.0098 19.1768 11.5406 19.0834 11.2286 18.7714L2.18182 9.72463V12.5455C2.18182 13.148 1.6934 13.6364 1.09091 13.6364C0.488417 13.6364 0 13.148 0 12.5455V7.09094C0 6.64971 0.265791 6.25192 0.673436 6.08307Z" fill="black"/>
</svg>
