<svg width="24" height="24" viewBox="0 0 24 24" fill="none" xmlns="http://www.w3.org/2000/svg">
<path fill-rule="evenodd" clip-rule="evenodd" d="M0 7.09091C0 6.48842 0.488417 6 1.09091 6H12.1091C12.7116 6 13.2 6.48842 13.2 7.09091V16.8H21.8182V12.6545C21.8182 12.0521 22.3066 11.5636 22.9091 11.5636C23.5116 11.5636 24 12.0521 24 12.6545V17.8909C24 18.4934 23.5116 18.9818 22.9091 18.9818H12.1091C11.5066 18.9818 11.0182 18.4934 11.0182 17.8909V8.18182H2.18182V12.6545C2.18182 13.257 1.6934 13.7455 1.09091 13.7455C0.488417 13.7455 0 13.257 0 12.6545V7.09091Z" fill="black"/>
</svg>
