<svg width="24" height="24" viewBox="0 0 24 24" fill="none" xmlns="http://www.w3.org/2000/svg">
<path fill-rule="evenodd" clip-rule="evenodd" d="M21.8182 12.4322C21.8204 11.8316 22.308 11.3455 22.9091 11.3455C23.5116 11.3455 24 11.8339 24 12.4364L22.9091 12.4364C24 12.4364 24 12.4369 24 12.4375L24 12.4388L24 12.4417L23.9999 12.4491C23.9999 12.4547 23.9998 12.4616 23.9997 12.4699C23.9994 12.4865 23.9989 12.5084 23.998 12.5352C23.9962 12.5888 23.9928 12.6624 23.9864 12.7531C23.9734 12.9343 23.9481 13.1859 23.8982 13.485C23.7994 14.0781 23.5997 14.8855 23.1894 15.706C22.7769 16.5309 22.1412 17.389 21.1671 18.0384C20.1861 18.6923 18.9272 19.0909 17.3454 19.0909C15.1629 19.0909 13.6949 18.2603 12.6916 16.9628C11.782 15.7867 11.2959 14.2663 10.881 12.9691C10.8713 12.9386 10.8616 12.9082 10.8519 12.8779C10.4005 11.4673 10.0152 10.3045 9.3643 9.46281C8.78586 8.71483 7.96293 8.18182 6.43637 8.18182C5.2909 8.18182 4.50432 8.46505 3.95115 8.83383C3.39116 9.20715 3.00421 9.71274 2.73483 10.2515C2.46331 10.7945 2.32211 11.3508 2.2505 11.7805C2.21512 11.9927 2.19785 12.1672 2.18949 12.2844C2.18531 12.3428 2.18339 12.3864 2.18252 12.4127C2.18208 12.4258 2.1819 12.4346 2.18184 12.4386C2.18182 12.4396 2.18181 12.4407 2.18181 12.4407L2.1818 12.4411M2.1818 12.4411L2.18181 12.4397L2.18182 12.4383L2.18182 12.4374C2.18182 12.4369 2.18181 13.485 1.0909 13.485C-6.75015e-06 13.485 0 12.4358 0 12.4352L1.6647e-06 12.434L1.16525e-05 12.4311L5.49326e-05 12.4238C9.82125e-05 12.4183 0.000174784 12.4115 0.000304624 12.4034C0.000565966 12.3873 0.00104371 12.366 0.00191096 12.34C0.00364381 12.288 0.00694304 12.2167 0.0132119 12.1289C0.0257247 11.9538 0.0502192 11.7107 0.098366 11.4218C0.193797 10.8492 0.38669 10.0691 0.783353 9.27576C1.18215 8.47817 1.79748 7.64739 2.7409 7.01844C3.69115 6.38495 4.90912 6 6.43637 6C8.6189 6 10.0869 6.83062 11.0902 8.12809C11.9998 9.30422 12.4859 10.8246 12.9008 12.1218C12.9105 12.1523 12.9202 12.1827 12.9299 12.213C13.3813 13.6236 13.7666 14.7864 14.4175 15.6281C14.9959 16.3761 15.8189 16.9091 17.3454 16.9091C18.5455 16.9091 19.373 16.6122 19.9568 16.223C20.5475 15.8292 20.9549 15.2963 21.2379 14.7303C21.5231 14.16 21.6711 13.5765 21.7461 13.1263C21.7832 12.9038 21.8013 12.7208 21.8101 12.5977C21.8145 12.5363 21.8165 12.4904 21.8174 12.4625C21.8179 12.4486 21.8181 12.4392 21.8182 12.4347C21.8182 12.4336 21.8182 12.4327 21.8182 12.4322" fill="black"/>
</svg>
